<svg width="20" height="20" viewBox="0 0 20 20" fill="none" xmlns="http://www.w3.org/2000/svg">
<path d="M15.802 2.39617H12.6888C12.5335 1.04952 11.3878 0 10.0001 0C8.61252 0 7.46694 1.04948 7.31164 2.39617H4.19831C2.93843 2.39617 1.91357 3.42131 1.91357 4.68114V4.79839C1.91357 5.76114 2.51304 6.58518 3.35752 6.92094V17.715C3.35752 18.9749 4.3825 20 5.6423 20H14.358C15.6179 20 16.6428 18.9748 16.6428 17.715V6.92098C17.4872 6.58518 18.0867 5.76114 18.0867 4.79843V4.68119C18.0867 3.42131 17.0618 2.39617 15.802 2.39617ZM10.0001 1.08364C10.7893 1.08364 11.4481 1.64932 11.5939 2.39617H8.40669C8.55241 1.64928 9.2112 1.08364 10.0001 1.08364ZM15.5591 17.715C15.5591 18.3774 15.0202 18.9164 14.358 18.9164H5.64225C4.98006 18.9164 4.44112 18.3774 4.44112 17.715V7.08336H15.5591V17.715ZM17.0031 4.79839C17.0031 5.46078 16.4641 5.99976 15.8019 5.99976H4.19831C3.53612 5.99976 2.99718 5.46078 2.99718 4.79839V4.68114C2.99718 4.01875 3.53612 3.47977 4.19831 3.47977H15.802C16.4642 3.47977 17.0031 4.01875 17.0031 4.68114V4.79839H17.0031Z" fill="#FF0000"/>
<path d="M7.09502 17.5306C7.39426 17.5306 7.63682 17.2879 7.63682 16.9888V10.8883C7.63682 10.5891 7.39422 10.3464 7.09502 10.3464C6.79583 10.3464 6.55322 10.5891 6.55322 10.8883V16.9888C6.55318 17.288 6.79579 17.5306 7.09502 17.5306Z" fill="#FF0000"/>
<path d="M10.0003 17.5306C10.2995 17.5306 10.5421 17.2879 10.5421 16.9888V10.8883C10.5421 10.5891 10.2995 10.3464 10.0003 10.3464C9.7011 10.3464 9.4585 10.5891 9.4585 10.8883V16.9888C9.4585 17.288 9.70106 17.5306 10.0003 17.5306Z" fill="#FF0000"/>
<path d="M12.9051 17.5306C13.2043 17.5306 13.4469 17.2879 13.4469 16.9888V10.8883C13.4469 10.5891 13.2043 10.3464 12.9051 10.3464C12.6058 10.3464 12.3633 10.5891 12.3633 10.8883V16.9888C12.3632 17.288 12.6059 17.5306 12.9051 17.5306Z" fill="#FF0000"/>
</svg>
