<svg width="192" height="205" viewBox="0 0 192 205" fill="none" xmlns="http://www.w3.org/2000/svg">
<path d="M144.44 153.992C144.09 154.092 143.722 154.092 143.371 153.992L76.8683 135.262C76.3275 135.109 75.8639 134.731 75.5792 134.21C75.2945 133.69 75.2118 133.07 75.3494 132.486L99.026 32.5086C99.0944 32.2195 99.215 31.948 99.3807 31.7097C99.5465 31.4714 99.7543 31.271 99.9922 31.1199C100.23 30.9688 100.493 30.87 100.767 30.8291C101.041 30.7882 101.32 30.8061 101.588 30.8816L168.091 49.6119C168.631 49.7649 169.095 50.1431 169.38 50.6636C169.664 51.184 169.747 51.8042 169.61 52.3881L145.933 152.365C145.865 152.655 145.745 152.926 145.579 153.165C145.413 153.403 145.205 153.603 144.967 153.754C144.802 153.859 144.625 153.939 144.44 153.992Z" fill="#E6E6E6"/>
<path d="M98.2695 36.3764L98.1487 36.8865L168.433 56.6818L168.554 56.1717L98.2695 36.3764Z" fill="white"/>
<path d="M96.0951 45.5579L95.9743 46.068L166.259 65.8633L166.379 65.3532L96.0951 45.5579Z" fill="white"/>
<path d="M93.9207 54.7396L93.7999 55.2496L164.084 75.0449L164.205 74.5349L93.9207 54.7396Z" fill="white"/>
<path d="M91.7464 63.9211L91.6256 64.4312L161.91 84.2264L162.031 83.7164L91.7464 63.9211Z" fill="white"/>
<path d="M89.572 73.1026L89.4512 73.6127L159.736 93.408L159.856 92.8979L89.572 73.1026Z" fill="white"/>
<path d="M87.3976 82.2841L87.2768 82.7942L157.561 102.59L157.682 102.079L87.3976 82.2841Z" fill="white"/>
<path d="M85.2232 91.4658L85.1024 91.9758L155.387 111.771L155.508 111.261L85.2232 91.4658Z" fill="white"/>
<path d="M83.0489 100.647L82.9281 101.157L153.212 120.953L153.333 120.443L83.0489 100.647Z" fill="white"/>
<path d="M80.8745 109.829L80.7537 110.339L151.038 130.134L151.159 129.624L80.8745 109.829Z" fill="white"/>
<path d="M78.7001 119.01L78.5793 119.521L148.864 139.316L148.985 138.806L78.7001 119.01Z" fill="white"/>
<path d="M76.5257 128.192L76.4049 128.702L146.689 148.497L146.81 147.987L76.5257 128.192Z" fill="white"/>
<path d="M135.767 142.308C135.417 142.408 135.049 142.408 134.698 142.309L68.1948 123.579C67.654 123.425 67.1904 123.047 66.9057 122.527C66.6209 122.006 66.5383 121.386 66.6759 120.802L90.3525 20.825C90.4209 20.5359 90.5414 20.2644 90.7072 20.0261C90.873 19.7878 91.0808 19.5874 91.3186 19.4363C91.5565 19.2852 91.8199 19.1864 92.0936 19.1455C92.3674 19.1046 92.6462 19.1225 92.9142 19.198L159.417 37.9283C159.958 38.0813 160.421 38.4595 160.706 38.98C160.991 39.5004 161.074 40.1206 160.936 40.7045L137.259 140.681C137.192 140.971 137.071 141.243 136.906 141.481C136.74 141.72 136.532 141.92 136.293 142.07C136.129 142.175 135.952 142.255 135.767 142.308Z" fill="#F2F2F2"/>
<path d="M89.596 24.6928L89.4752 25.2029L159.76 44.9982L159.88 44.4881L89.596 24.6928Z" fill="white"/>
<path d="M87.4216 33.8743L87.3008 34.3844L157.585 54.1797L157.706 53.6696L87.4216 33.8743Z" fill="white"/>
<path d="M85.2472 43.056L85.1264 43.566L155.411 63.3613L155.532 62.8513L85.2472 43.056Z" fill="white"/>
<path d="M83.0729 52.2375L82.9521 52.7476L153.236 72.5429L153.357 72.0328L83.0729 52.2375Z" fill="white"/>
<path d="M80.8985 61.419L80.7777 61.9291L151.062 81.7244L151.183 81.2143L80.8985 61.419Z" fill="white"/>
<path d="M78.7241 70.6005L78.6033 71.1106L148.888 90.9059L149.009 90.3958L78.7241 70.6005Z" fill="white"/>
<path d="M76.5497 79.7822L76.4289 80.2922L146.713 100.088L146.834 99.5775L76.5497 79.7822Z" fill="white"/>
<path d="M74.3753 88.9637L74.2545 89.4738L144.539 109.269L144.66 108.759L74.3753 88.9637Z" fill="white"/>
<path d="M72.201 98.1453L72.0802 98.6554L142.365 118.451L142.485 117.941L72.201 98.1453Z" fill="white"/>
<path d="M70.0266 107.327L69.9058 107.837L140.19 127.632L140.311 127.122L70.0266 107.327Z" fill="white"/>
<path d="M67.8522 116.508L67.7314 117.018L138.016 136.814L138.137 136.304L67.8522 116.508Z" fill="white"/>
<path d="M98.2095 16.8099L6.03405 43.2625L40.7298 181.946L132.905 155.493C133.236 155.398 133.518 155.165 133.689 154.844C133.86 154.524 133.905 154.142 133.816 153.784L99.7958 17.8024C99.7062 17.4441 99.4887 17.1383 99.1912 16.9522C98.8937 16.766 98.5406 16.7148 98.2095 16.8099ZM44.9741 176.626C44.5214 176.756 44.0425 176.737 43.5981 176.573C43.1536 176.409 42.7635 176.107 42.477 175.704C42.1906 175.301 42.0207 174.816 41.9888 174.31C41.957 173.805 42.0645 173.301 42.298 172.863C42.5314 172.424 42.8802 172.072 43.3003 171.849C43.7204 171.626 44.1929 171.543 44.658 171.61C45.1231 171.677 45.56 171.892 45.9133 172.227C46.2667 172.562 46.5207 173.003 46.6433 173.492C46.7246 173.818 46.746 174.157 46.7062 174.49C46.6663 174.824 46.566 175.145 46.411 175.436C46.256 175.727 46.0493 175.982 45.8028 176.186C45.5562 176.39 45.2746 176.54 44.9741 176.626ZM41.8199 164.018C41.3672 164.148 40.8884 164.13 40.4439 163.966C39.9994 163.802 39.6093 163.499 39.3229 163.096C39.0364 162.693 38.8665 162.209 38.8347 161.703C38.8028 161.197 38.9104 160.693 39.1438 160.255C39.3773 159.817 39.7261 159.464 40.1462 159.241C40.5662 159.018 41.0387 158.935 41.5038 159.002C41.9689 159.07 42.4058 159.285 42.7592 159.62C43.1126 159.955 43.3666 160.395 43.4891 160.885C43.5705 161.21 43.5919 161.549 43.552 161.883C43.5122 162.216 43.4119 162.537 43.2569 162.828C43.1019 163.119 42.8952 163.374 42.6486 163.578C42.4021 163.783 42.1205 163.932 41.8199 164.018ZM38.6657 151.411C38.2131 151.541 37.7342 151.522 37.2898 151.358C36.8453 151.194 36.4552 150.891 36.1687 150.489C35.8823 150.086 35.7124 149.601 35.6805 149.095C35.6486 148.589 35.7562 148.086 35.9897 147.647C36.2231 147.209 36.5719 146.856 36.992 146.633C37.4121 146.41 37.8845 146.327 38.3496 146.395C38.8148 146.462 39.2516 146.677 39.605 147.012C39.9584 147.347 40.2124 147.788 40.335 148.277C40.4163 148.603 40.4377 148.942 40.3978 149.275C40.358 149.608 40.2577 149.93 40.1027 150.221C39.9477 150.512 39.741 150.767 39.4945 150.971C39.2479 151.175 38.9663 151.324 38.6657 151.411ZM35.5116 138.803C35.0589 138.933 34.5801 138.915 34.1356 138.751C33.6911 138.586 33.301 138.284 33.0146 137.881C32.7281 137.478 32.5582 136.993 32.5263 136.488C32.4945 135.982 32.6021 135.478 32.8355 135.04C33.0689 134.602 33.4178 134.249 33.8378 134.026C34.2579 133.803 34.7304 133.72 35.1955 133.787C35.6606 133.855 36.0975 134.069 36.4509 134.405C36.8042 134.74 37.0583 135.18 37.1808 135.67C37.2622 135.995 37.2835 136.334 37.2437 136.667C37.2038 137.001 37.1035 137.322 36.9485 137.613C36.7935 137.904 36.5869 138.159 36.3403 138.363C36.0938 138.567 35.8122 138.717 35.5116 138.803ZM32.3574 126.195C31.9047 126.325 31.4259 126.307 30.9814 126.143C30.537 125.979 30.1468 125.676 29.8604 125.274C29.574 124.871 29.4041 124.386 29.3722 123.88C29.3403 123.374 29.4479 122.87 29.6813 122.432C29.9148 121.994 30.2636 121.641 30.6837 121.418C31.1038 121.195 31.5762 121.112 32.0413 121.18C32.5064 121.247 32.9433 121.462 33.2967 121.797C33.6501 122.132 33.9041 122.572 34.0266 123.062C34.108 123.387 34.1294 123.726 34.0895 124.06C34.0497 124.393 33.9494 124.715 33.7944 125.006C33.6394 125.297 33.4327 125.551 33.1861 125.756C32.9396 125.96 32.658 126.109 32.3574 126.195ZM29.2033 113.588C28.7506 113.718 28.2717 113.7 27.8273 113.535C27.3828 113.371 26.9927 113.069 26.7062 112.666C26.4198 112.263 26.2499 111.778 26.218 111.272C26.1862 110.767 26.2937 110.263 26.5272 109.825C26.7606 109.386 27.1094 109.034 27.5295 108.811C27.9496 108.588 28.4221 108.505 28.8872 108.572C29.3523 108.639 29.7892 108.854 30.1425 109.189C30.4959 109.524 30.7499 109.965 30.8725 110.455C30.9538 110.78 30.9752 111.119 30.9354 111.452C30.8955 111.786 30.7952 112.107 30.6402 112.398C30.4852 112.689 30.2785 112.944 30.032 113.148C29.7854 113.352 29.5038 113.502 29.2033 113.588ZM26.0491 100.98C25.5964 101.11 25.1176 101.092 24.6731 100.928C24.2286 100.764 23.8385 100.461 23.5521 100.058C23.2656 99.6555 23.0957 99.1706 23.0639 98.6649C23.032 98.1591 23.1396 97.6553 23.373 97.2171C23.6065 96.7789 23.9553 96.426 24.3754 96.203C24.7954 95.9801 25.2679 95.897 25.733 95.9645C26.1981 96.0319 26.635 96.2467 26.9884 96.5818C27.3418 96.9169 27.5958 97.3571 27.7183 97.847C27.7997 98.1722 27.821 98.5112 27.7812 98.8447C27.7413 99.1781 27.6411 99.4995 27.4861 99.7905C27.3311 100.081 27.1244 100.336 26.8778 100.54C26.6313 100.745 26.3497 100.894 26.0491 100.98ZM22.8949 88.3727C22.4423 88.5026 21.9634 88.4844 21.519 88.3202C21.0745 88.1561 20.6844 87.8536 20.3979 87.4507C20.1115 87.0479 19.9416 86.563 19.9097 86.0573C19.8778 85.5515 19.9854 85.0477 20.2189 84.6095C20.4523 84.1713 20.8011 83.8184 21.2212 83.5954C21.6413 83.3725 22.1137 83.2894 22.5788 83.3569C23.044 83.4243 23.4808 83.6391 23.8342 83.9742C24.1876 84.3093 24.4416 84.7496 24.5642 85.2394C24.6455 85.5646 24.6669 85.9036 24.627 86.2371C24.5872 86.5705 24.4869 86.8919 24.3319 87.1829C24.1769 87.4738 23.9702 87.7287 23.7237 87.9328C23.4771 88.137 23.1955 88.2864 22.8949 88.3727ZM19.7408 75.7651C19.2881 75.895 18.8093 75.8768 18.3648 75.7127C17.9203 75.5486 17.5302 75.246 17.2438 74.8432C16.9573 74.4404 16.7874 73.9554 16.7555 73.4497C16.7237 72.9439 16.8313 72.4401 17.0647 72.0019C17.2981 71.5637 17.647 71.2108 18.067 70.9879C18.4871 70.7649 18.9596 70.6819 19.4247 70.7493C19.8898 70.8167 20.3267 71.0315 20.6801 71.3666C21.0334 71.7017 21.2875 72.142 21.41 72.6318C21.4914 72.957 21.5127 73.296 21.4729 73.6295C21.433 73.963 21.3327 74.2843 21.1777 74.5753C21.0227 74.8663 20.8161 75.1211 20.5695 75.3252C20.323 75.5294 20.0414 75.6788 19.7408 75.7651ZM16.5866 63.1575C16.1339 63.2874 15.6551 63.2692 15.2106 63.1051C14.7662 62.941 14.376 62.6384 14.0896 62.2356C13.8031 61.8328 13.6333 61.3478 13.6014 60.8421C13.5695 60.3364 13.6771 59.8325 13.9105 59.3943C14.144 58.9561 14.4928 58.6032 14.9129 58.3803C15.3329 58.1573 15.8054 58.0743 16.2705 58.1417C16.7356 58.2091 17.1725 58.4239 17.5259 58.759C17.8793 59.0941 18.1333 59.5344 18.2558 60.0242C18.3372 60.3494 18.3586 60.6884 18.3187 61.0219C18.2789 61.3554 18.1786 61.6768 18.0236 61.9677C17.8686 62.2587 17.6619 62.5135 17.4153 62.7176C17.1688 62.9218 16.8872 63.0713 16.5866 63.1575ZM13.4325 50.5499C12.9798 50.6798 12.5009 50.6616 12.0565 50.4975C11.612 50.3334 11.2219 50.0308 10.9354 49.628C10.649 49.2252 10.4791 48.7402 10.4472 48.2345C10.4153 47.7288 10.5229 47.225 10.7564 46.7867C10.9898 46.3485 11.3386 45.9956 11.7587 45.7727C12.1788 45.5497 12.6513 45.4667 13.1164 45.5341C13.5815 45.6015 14.0184 45.8163 14.3717 46.1514C14.7251 46.4865 14.9791 46.9268 15.1017 47.4166C15.183 47.7418 15.2044 48.0808 15.1646 48.4143C15.1247 48.7478 15.0244 49.0692 14.8694 49.3601C14.7144 49.6511 14.5077 49.9059 14.2612 50.1101C14.0146 50.3142 13.733 50.4637 13.4325 50.5499Z" fill="#1C2D40" style="mix-blend-mode:darken"/>
<path d="M7.9491 50.917C7.33149 51.0943 1.90715 52.6171 1.63342 51.523C1.35969 50.4289 6.76825 48.8429 7.38586 48.6657L7.4985 49.116C4.30828 50.0315 2.33635 51.0115 2.07552 51.3961C2.48096 51.5895 4.64622 51.3823 7.83645 50.4668C11.0196 49.5533 12.9898 48.5755 13.2576 48.1892C13.0649 48.112 12.3388 48.0425 10.5239 48.3856L10.4475 47.9268C13.5228 47.3454 13.6527 47.8644 13.7015 48.0597C13.9753 49.1538 8.56671 50.7398 7.9491 50.917Z" fill="#2F2E41"/>
<path d="M11.0469 63.2995C10.4293 63.4767 5.00497 64.9996 4.73124 63.9055C4.45751 62.8113 9.86607 61.2254 10.4837 61.0481L10.5963 61.4984C7.4061 62.4139 5.43418 63.394 5.17334 63.7786C5.57878 63.972 7.74405 63.7648 10.9343 62.8492C14.1174 61.9357 16.0876 60.9579 16.3555 60.5717C16.1627 60.4944 15.4367 60.425 13.6218 60.768L13.5454 60.3092C16.6207 59.7278 16.7505 60.2468 16.7994 60.4422C17.0731 61.5363 11.6645 63.1222 11.0469 63.2995Z" fill="#2F2E41"/>
<path d="M14.2011 75.9071C13.5835 76.0844 8.15913 77.6072 7.8854 76.5131C7.61167 75.419 13.0202 73.833 13.6378 73.6558L13.7505 74.1061C10.5603 75.0216 8.58833 76.0016 8.3275 76.3862C8.73294 76.5796 10.8982 76.3724 14.0884 75.4569C17.2715 74.5434 19.2418 73.5656 19.5096 73.1793C19.3168 73.1021 18.5908 73.0326 16.7759 73.3757L16.6995 72.9169C19.7748 72.3355 19.9047 72.8545 19.9535 73.0498C20.2272 74.1439 14.8187 75.7299 14.2011 75.9071Z" fill="#2F2E41"/>
<path d="M17.3552 88.5147C16.7376 88.6919 11.3133 90.2148 11.0396 89.1207C10.7658 88.0265 16.1744 86.4406 16.792 86.2633L16.9046 86.7136C13.7144 87.6291 11.7425 88.6092 11.4817 88.9938C11.8871 89.1872 14.0524 88.98 17.2426 88.0644C20.4257 87.1509 22.3959 86.1731 22.6638 85.7869C22.471 85.7096 21.745 85.6402 19.9301 85.9832L19.8537 85.5244C22.929 84.943 23.0588 85.462 23.1077 85.6574C23.3814 86.7515 17.9728 88.3374 17.3552 88.5147Z" fill="#2F2E41"/>
<path d="M20.5094 101.122C19.8918 101.299 14.4675 102.822 14.1937 101.728C13.92 100.634 19.3286 99.0481 19.9462 98.8709L20.0588 99.3212C16.8686 100.237 14.8967 101.217 14.6358 101.601C15.0413 101.795 17.2065 101.588 20.3968 100.672C23.5799 99.7585 25.5501 98.7807 25.818 98.3944C25.6252 98.3172 24.8992 98.2477 23.0843 98.5908L23.0079 98.132C26.0832 97.5506 26.213 98.0696 26.2619 98.2649C26.5356 99.359 21.127 100.945 20.5094 101.122Z" fill="#2F2E41"/>
<path d="M23.6636 113.73C23.046 113.907 17.6216 115.43 17.3479 114.336C17.0742 113.242 22.4827 111.656 23.1003 111.479L23.213 111.929C20.0227 112.844 18.0508 113.824 17.79 114.209C18.1954 114.402 20.3607 114.195 23.5509 113.28C26.734 112.366 28.7042 111.388 28.9721 111.002C28.7793 110.925 28.0533 110.855 26.2384 111.198L26.162 110.74C29.2373 110.158 29.3671 110.677 29.416 110.873C29.6897 111.967 24.2812 113.553 23.6636 113.73Z" fill="#2F2E41"/>
<path d="M26.8177 126.337C26.2001 126.515 20.7758 128.038 20.502 126.943C20.2283 125.849 25.6369 124.263 26.2545 124.086L26.3671 124.536C23.1769 125.452 21.205 126.432 20.9441 126.817C21.3496 127.01 23.5148 126.803 26.7051 125.887C29.8882 124.974 31.8584 123.996 32.1263 123.61C31.9335 123.532 31.2075 123.463 29.3926 123.806L29.3162 123.347C32.3915 122.766 32.5213 123.285 32.5702 123.48C32.8439 124.574 27.4353 126.16 26.8177 126.337Z" fill="#2F2E41"/>
<path d="M29.9719 138.945C29.3543 139.122 23.9299 140.645 23.6562 139.551C23.3825 138.457 28.791 136.871 29.4086 136.694L29.5213 137.144C26.3311 138.06 24.3591 139.04 24.0983 139.424C24.5037 139.618 26.669 139.41 29.8592 138.495C33.0423 137.581 35.0126 136.604 35.2804 136.217C35.0876 136.14 34.3616 136.071 32.5467 136.414L32.4703 135.955C35.5456 135.373 35.6755 135.892 35.7243 136.088C35.998 137.182 30.5895 138.768 29.9719 138.945Z" fill="#2F2E41"/>
<path d="M33.126 151.553C32.5084 151.73 27.0841 153.253 26.8104 152.159C26.5366 151.065 31.9452 149.479 32.5628 149.301L32.6754 149.752C29.4852 150.667 27.5133 151.647 27.2525 152.032C27.6579 152.225 29.8232 152.018 33.0134 151.102C36.1965 150.189 38.1667 149.211 38.4346 148.825C38.2418 148.748 37.5158 148.678 35.7009 149.021L35.6245 148.562C38.6998 147.981 38.8296 148.5 38.8785 148.695C39.1522 149.789 33.7437 151.375 33.126 151.553Z" fill="#2F2E41"/>
<path d="M36.2802 164.16C35.6626 164.337 30.2383 165.86 29.9645 164.766C29.6908 163.672 35.0993 162.086 35.717 161.909L35.8296 162.359C32.6394 163.275 30.6675 164.255 30.4066 164.639C30.8121 164.833 32.9773 164.625 36.1676 163.71C39.3507 162.796 41.3209 161.819 41.5887 161.432C41.396 161.355 40.6699 161.286 38.855 161.629L38.7786 161.17C41.8539 160.589 41.9838 161.108 42.0326 161.303C42.3064 162.397 36.8978 163.983 36.2802 164.16Z" fill="#2F2E41"/>
<path d="M39.4344 176.768C38.8168 176.945 33.3924 178.468 33.1187 177.374C32.845 176.28 38.2535 174.694 38.8711 174.517L38.9838 174.967C35.7935 175.882 33.8216 176.862 33.5608 177.247C33.9662 177.44 36.1315 177.233 39.3217 176.318C42.5048 175.404 44.475 174.426 44.7429 174.04C44.5501 173.963 43.8241 173.893 42.0092 174.236L41.9328 173.778C45.0081 173.196 45.1379 173.715 45.1868 173.911C45.4605 175.005 40.052 176.591 39.4344 176.768Z" fill="#2F2E41"/>
<path d="M92.6434 75.2333L46.8678 88.37C46.5092 88.4725 46.1268 88.4168 45.8046 88.2152C45.4824 88.0136 45.2467 87.6826 45.1493 87.2948L40.3054 67.9331C40.2087 67.545 40.2583 67.1321 40.4432 66.785C40.6281 66.4379 40.9333 66.1849 41.2917 66.0816L87.0673 52.9449C87.426 52.8424 87.8084 52.8981 88.1306 53.0996C88.4528 53.3012 88.6884 53.6323 88.7859 54.0201L93.6298 73.3818C93.7265 73.7699 93.6769 74.1828 93.492 74.5299C93.3071 74.877 93.0019 75.1299 92.6434 75.2333V75.2333Z" fill="white"/>
<path d="M71.6671 64.4828L60.0151 67.8267C59.7392 67.9059 59.4449 67.8632 59.197 67.7081C58.9491 67.553 58.7679 67.2981 58.6932 66.9996C58.6185 66.701 58.6565 66.3832 58.7987 66.1161C58.941 65.8491 59.176 65.6545 59.4519 65.5753L71.1039 62.2314C71.3798 62.1523 71.6741 62.1949 71.922 62.35C72.1699 62.5051 72.3512 62.76 72.4258 63.0586C72.5005 63.3571 72.4626 63.6749 72.3203 63.942C72.178 64.2091 71.943 64.4036 71.6671 64.4828L71.6671 64.4828Z" fill="#413F79"/>
<path d="M79.5254 68.26L54.973 75.3061C54.6971 75.3852 54.4028 75.3426 54.1549 75.1875C53.907 75.0324 53.7257 74.7775 53.651 74.479C53.5764 74.1804 53.6143 73.8626 53.7566 73.5955C53.8989 73.3284 54.1339 73.1339 54.4098 73.0547L78.9621 66.0086C79.2381 65.9295 79.5324 65.9721 79.7803 66.1272C80.0282 66.2823 80.2094 66.5372 80.2841 66.8358C80.3588 67.1343 80.3208 67.4521 80.1786 67.7192C80.0363 67.9863 79.8013 68.1808 79.5254 68.26Z" fill="#413F79"/>
<path d="M80.9335 73.8884L56.3811 80.9345C56.1052 81.0137 55.8109 80.971 55.563 80.8159C55.3151 80.6608 55.1338 80.4059 55.0592 80.1074C54.9845 79.8088 55.0224 79.491 55.1647 79.2239C55.307 78.9568 55.542 78.7623 55.8179 78.6831L80.3703 71.6371C80.6462 71.5579 80.9405 71.6005 81.1884 71.7556C81.4363 71.9108 81.6175 72.1656 81.6922 72.4642C81.7669 72.7627 81.7289 73.0805 81.5867 73.3476C81.4444 73.6147 81.2094 73.8092 80.9335 73.8884Z" fill="#413F79"/>
<path d="M140.134 204.357C166.891 204.357 188.582 200.078 188.582 194.799C188.582 189.52 166.891 185.24 140.134 185.24C113.377 185.24 91.6855 189.52 91.6855 194.799C91.6855 200.078 113.377 204.357 140.134 204.357Z" fill="#F2F2F2"/>
<path d="M173.407 109.959L164.764 114.63L165.323 115.823L173.966 111.152L173.407 109.959Z" fill="#413F79"/>
<path d="M172.002 101.272L171.613 103.768C171.613 103.768 172.196 121.027 167.924 115.62C163.653 110.214 166.565 102.936 166.565 102.936L167.73 100.856L172.002 101.272Z" fill="#FBBEBE"/>
<path d="M147.15 21.4233C147.15 21.4233 146.374 30.1568 145.986 30.5727C145.597 30.9886 151.81 38.8903 151.81 38.8903L157.246 33.4839C157.246 33.4839 156.858 25.5822 158.023 23.9186C159.188 22.2551 147.15 21.4233 147.15 21.4233Z" fill="#FBBEBE"/>
<path opacity="0.1" d="M147.15 21.4233C147.15 21.4233 146.374 30.1568 145.986 30.5727C145.597 30.9886 151.81 38.8903 151.81 38.8903L157.246 33.4839C157.246 33.4839 156.858 25.5822 158.023 23.9186C159.188 22.2551 147.15 21.4233 147.15 21.4233Z" fill="black"/>
<path d="M132.783 180.705V188.191L130.065 188.607L126.182 187.36L127.347 179.458L132.783 180.705Z" fill="#464646"/>
<path d="M129.289 184.448C129.289 184.448 128.124 181.121 126.182 181.537C124.241 181.953 123.852 184.448 123.852 184.448C123.852 184.448 122.299 190.686 119.969 192.766C117.64 194.845 115.31 200.252 119.969 201.083C124.629 201.915 128.512 199.836 128.512 199.42C128.512 199.004 129.677 196.509 131.618 196.093C133.56 195.677 135.113 195.261 135.113 193.598C135.113 191.934 133.948 190.271 133.948 190.271C133.948 190.271 133.56 182.382 132.783 183.415C132.246 184.231 131.852 185.145 131.618 186.112L129.289 184.448Z" fill="black"/>
<path d="M149.48 176.962L147.927 183.2L151.81 184.032L153.751 181.953L154.14 176.547L149.48 176.962Z" fill="#464646"/>
<path d="M149.092 182.369C149.092 182.369 150.645 181.121 151.422 181.121H152.587C152.587 181.121 152.587 178.21 154.528 178.21C156.47 178.21 156.081 180.289 156.081 180.289C156.081 180.289 160.353 187.359 161.517 188.607C162.682 189.855 168.895 193.598 163.847 195.261C158.799 196.925 155.305 196.925 152.975 194.013C152.975 194.013 150.645 192.766 149.092 192.766C147.539 192.766 145.597 191.934 145.597 190.686C145.597 189.439 146.762 186.943 146.762 186.943C146.762 186.943 147.539 179.458 147.927 180.289C148.315 181.121 149.092 182.369 149.092 182.369Z" fill="black"/>
<path d="M132.395 81.3101V95.0341C132.395 95.0341 128.124 121.65 128.124 130.384C128.124 139.117 121.523 180.705 124.629 181.537C127.735 182.369 135.113 183.616 135.501 182.369C135.89 181.121 138.608 141.613 138.996 141.197C139.384 140.781 147.539 107.926 147.539 107.926L149.092 108.342L149.869 145.771C149.869 145.771 145.986 179.458 147.927 179.458C149.869 179.458 158.023 179.042 158.023 176.547C158.023 174.051 162.294 127.889 162.294 127.889C162.294 127.889 167.342 91.2912 165.401 87.5483C163.459 83.8053 163.459 81.7259 163.459 81.7259L132.395 81.3101Z" fill="#576A80"/>
<path d="M153.557 27.8694C157.846 27.8694 161.323 24.1455 161.323 19.5518C161.323 14.9582 157.846 11.2343 153.557 11.2343C149.268 11.2343 145.791 14.9582 145.791 19.5518C145.791 24.1455 149.268 27.8694 153.557 27.8694Z" fill="#FBBEBE"/>
<path d="M151.81 33.8996C151.81 33.8996 146.956 29.5329 146.568 27.8694C146.568 27.8694 144.044 30.5726 144.044 30.9885C144.044 31.4044 133.172 32.652 130.454 35.979C127.735 39.3061 125.406 46.376 125.406 46.376L132.007 59.6842C132.007 59.6842 132.395 67.17 132.395 68.0018C132.395 68.8335 130.454 82.1417 131.23 82.5576C132.007 82.9734 139.773 87.1323 146.374 86.3005C152.975 85.4687 159.576 84.2211 161.518 84.2211C163.459 84.2211 165.012 85.0528 165.012 84.2211C165.012 83.3893 163.847 81.7258 163.847 80.894C163.847 80.0623 163.459 77.9829 163.459 76.7353C163.459 75.4876 162.682 73.4082 162.682 71.7447C162.682 70.0812 171.225 47.6237 171.225 47.6237C171.225 47.6237 170.837 40.5537 164.624 37.2267C158.411 33.8996 157.634 32.652 157.634 32.652C157.634 32.652 157.513 30.1567 157.186 30.1567C156.858 30.1567 155.693 33.8996 152.587 34.3155L151.81 33.8996Z" fill="black"/>
<path d="M130.842 89.2118L133.56 93.7863L140.549 92.1228L135.501 85.8848L130.842 89.2118Z" fill="#FBBEBE"/>
<path d="M168.895 44.2968L171.225 47.6238C171.225 47.6238 175.885 71.7448 175.108 80.4783C174.331 89.2118 173.555 95.8659 173.555 95.8659C173.555 95.8659 175.108 102.104 173.943 102.104C172.778 102.104 165.789 102.52 165.789 101.272C165.789 100.025 166.565 92.1229 166.565 92.1229L164.624 73.8242L160.353 67.586L168.895 44.2968Z" fill="black"/>
<path d="M148.232 16.6705C148.708 16.4544 149.259 16.6297 149.768 16.5375C150.367 16.4293 150.903 15.9542 151.507 16.0142C151.794 16.071 152.072 16.1678 152.335 16.302C152.335 16.302 152.61 16.4056 152.756 16.4112C152.902 16.4168 152.756 15.8578 153.183 16.3346C153.248 16.3023 153.305 16.255 153.351 16.1961C153.397 16.1371 153.43 16.068 153.447 15.9938C153.465 15.9196 153.467 15.8421 153.453 15.7669C153.439 15.6918 153.41 15.6208 153.368 15.5593C153.879 15.511 154.363 15.2881 154.747 14.9233C154.824 14.8382 154.912 14.7668 155.01 14.7118C155.124 14.68 155.243 14.6736 155.359 14.693C155.476 14.7124 155.587 14.7572 155.687 14.8247L156.575 15.2634C156.775 15.3391 156.951 15.474 157.083 15.6524C157.189 15.8289 157.209 16.0662 157.359 16.2013C157.55 16.3738 157.836 16.2894 158.085 16.3063C158.311 16.3299 158.522 16.4416 158.676 16.6203C158.831 16.799 158.918 17.0322 158.923 17.2757C158.919 17.555 158.825 17.8976 159.031 18.0685C159.15 18.1677 159.32 18.1518 159.46 18.2127C159.824 18.3707 159.825 18.9122 159.771 19.328C159.718 19.7439 159.744 20.2925 160.118 20.4206C160.38 20.5107 160.649 20.3185 160.922 20.2757C161.334 20.211 161.715 20.487 162.082 20.6981C162.449 20.9093 162.936 21.0517 163.254 20.7637C163.55 20.4957 163.531 20.0053 163.449 19.5996C163.333 19.0179 163.141 18.4564 162.88 17.9313C162.783 17.7768 162.726 17.5977 162.714 17.4121C162.737 17.2815 162.784 17.1573 162.855 17.0479C162.925 16.9384 163.016 16.8462 163.122 16.7771C163.571 16.3966 164.088 16.0136 164.234 15.4202C164.34 14.9847 164.22 14.5254 164.229 14.0753C164.241 13.5275 164.444 12.9821 164.349 12.4438C164.176 11.4681 163.162 10.9985 162.508 10.295C161.608 9.3283 161.316 7.78209 160.255 7.02704C159.406 6.423 158.295 6.49511 157.328 6.14951C156.266 5.76986 155.411 4.89763 154.363 4.4745C153.791 4.24861 153.18 4.16105 152.573 4.2181C151.965 4.27514 151.378 4.47537 150.851 4.80444C150.539 5.0527 150.19 5.24363 149.819 5.36946C149.506 5.40823 149.19 5.40431 148.879 5.35779C148.259 5.32358 147.642 5.45994 147.086 5.75388C146.874 5.84498 146.696 6.01145 146.584 6.22554C146.397 6.67176 146.669 7.36932 146.258 7.58268C146.066 7.68215 145.84 7.58686 145.627 7.59187C145.213 7.60161 144.894 7.98757 144.697 8.37783C144.543 8.7904 144.323 9.1706 144.046 9.50087C143.539 9.97573 142.62 10.0542 142.487 10.7609C142.485 11.0601 142.501 11.3591 142.535 11.6561C142.497 12.2824 141.871 12.7583 141.903 13.3849C141.941 14.1077 142.799 14.4609 143.028 15.1419C143.202 15.6604 142.973 16.2211 142.815 16.7457C142.657 17.2702 142.609 17.9426 143.017 18.2784C143.177 18.4101 143.383 18.4641 143.546 18.5912C143.968 18.9202 143.963 19.5841 143.916 20.1411C143.889 20.2567 143.889 20.3777 143.916 20.4934C143.942 20.6091 143.995 20.716 144.069 20.8047C144.139 20.8499 144.217 20.8787 144.298 20.8891C144.379 20.8995 144.461 20.8913 144.539 20.8651C144.792 20.7992 145.031 20.6786 145.239 20.5105C145.448 20.3425 145.622 20.1306 145.751 19.8879C145.887 19.6471 145.915 19.4348 146.162 19.307C146.329 19.2203 146.533 19.2977 146.703 19.1852C147.515 18.6499 147.236 17.1227 148.232 16.6705Z" fill="#151414"/>
<path d="M126.571 45.1285L125.406 46.3762C125.406 46.3762 118.416 68.8337 120.746 73.8242C123.076 78.8148 127.735 91.2912 129.289 90.8753C130.842 90.4594 136.278 86.7165 136.278 86.3006C136.278 85.8848 129.677 74.2401 129.677 74.2401C129.677 74.2401 128.9 71.7449 129.289 71.329C129.677 70.9131 129.677 71.329 129.289 70.4972C128.9 69.6655 128.9 70.4972 129.677 69.6655C130.454 68.8337 130.454 68.8337 130.454 68.4178C130.454 68.0019 132.783 57.6049 132.783 57.6049L126.571 45.1285Z" fill="black"/>
<path d="M132.589 93.9943L141.132 91.0834L142.297 93.9943L132.978 96.0737L132.589 93.9943Z" fill="#2F2E41"/>
<path opacity="0.1" d="M132.589 93.9943L141.132 91.0834L142.297 93.9943L132.978 96.0737L132.589 93.9943Z" fill="black"/>
<path opacity="0.1" d="M144.238 31.1965L150.839 37.0188L151.616 35.771L144.238 31.1965Z" fill="black"/>
<path opacity="0.1" d="M157.44 32.8601L152.781 35.771L153.169 37.0188L157.44 32.8601Z" fill="black"/>
</svg>
